<?xml version="1.0" encoding="UTF-8"?>
<svg width="670px" height="445px" viewBox="0 0 670 445" version="1.1" xmlns="http://www.w3.org/2000/svg" xmlns:xlink="http://www.w3.org/1999/xlink">
    <!-- Generator: sketchtool 55.1 (78136) - https://sketchapp.com -->
    <title>0FFAC01D-F323-4EF1-8B65-F2E560126794</title>
    <desc>Created with sketchtool.</desc>
    <g id="Page-1" stroke="none" stroke-width="1" fill="none" fill-rule="evenodd" opacity="0.200000003">
        <g id="Assets" transform="translate(-92.000000, -53.000000)" fill="#990001">
            <path d="M253.23311,82.5814827 C225.598946,104.297648 206.36303,133.168777 182.085026,161.796487 C157.571556,190.703736 126.563964,215.160334 108.565024,249.469927 C64.9098256,332.683294 112.009092,453.65967 197.577049,486.087866 C317.730095,531.623026 429.860067,433.239125 544.236373,414.731387 C582.058321,408.612919 621.803232,410.729884 658.07896,397.002591 C704.057413,379.60359 744.712788,342.979155 757.551906,292.825305 C782.539445,195.210924 698.023231,118.086187 609.752137,112.35719 C577.947103,110.29205 545.704105,111.776124 514.357443,104.683978 C481.615259,97.2761713 451.637433,80.2933389 420.050597,69.111744 C377.244642,53.9600547 324.68259,44.7054004 284.137098,63.536651 C272.57263,68.9091561 262.43665,75.3495663 253.23311,82.5814827" id="blob_1"></path>
        </g>
    </g>
</svg>