<?xml version="1.0" encoding="UTF-8"?>
<svg width="621px" height="484px" viewBox="0 0 621 484" version="1.1" xmlns="http://www.w3.org/2000/svg" xmlns:xlink="http://www.w3.org/1999/xlink">
    <!-- Generator: sketchtool 55.1 (78136) - https://sketchapp.com -->
    <title>D0C720EE-B5D3-4FF4-B481-79756D849AD4</title>
    <desc>Created with sketchtool.</desc>
    <g id="Page-1" stroke="none" stroke-width="1" fill="none" fill-rule="evenodd" opacity="0.5">
        <g id="Assets" transform="translate(-134.000000, -743.000000)" fill="#FFD86C">
            <path d="M816.224307,1105.67272 C815.707693,1109.15483 815.077425,1112.56608 814.343833,1115.88623 C813.951207,1117.70826 813.517252,1119.49993 813.052299,1121.26123 C802.379062,1161.9128 763.147422,1187.38077 723.812459,1197.77648 C713.666167,1200.45891 703.457882,1202.19997 693.228932,1203.14135 C685.748366,1203.82967 678.257468,1204.09286 670.776903,1203.97139 C653.873305,1203.71833 637.000703,1201.56226 620.324415,1198.13076 C615.323595,1197.1084 610.333107,1195.96457 605.373616,1194.71951 C592.892231,1191.59169 580.555497,1187.8464 568.446073,1183.74683 C543.886261,1175.43633 524.802553,1173.78638 504.69595,1171.97447 C497.432362,1171.31651 490.034455,1170.63831 482.202592,1169.61595 L482.19226,1169.61595 C478.038686,1169.07946 473.771458,1168.44175 469.32858,1167.66233 C464.803045,1166.86266 460.101861,1165.92127 455.173367,1164.77744 C453.272228,1164.33205 451.37109,1163.91704 449.45962,1163.51214 C448.715696,1163.35018 447.982105,1163.18822 447.238181,1163.03639 C443.342914,1162.23672 439.437315,1161.5079 435.511051,1160.84995 C434.715466,1160.70823 433.919881,1160.56652 433.113964,1160.44505 C429.353017,1159.81746 425.571405,1159.26073 421.779461,1158.75461 C416.737312,1158.06629 411.68483,1157.46906 406.611684,1156.9427 C405.413141,1156.82123 404.224929,1156.69976 403.026386,1156.58842 C395.494159,1155.84948 387.930935,1155.26238 380.357379,1154.75626 C373.17645,1154.29063 365.974856,1153.90598 358.773261,1153.55169 C351.096383,1153.17717 343.409172,1152.833 335.732293,1152.48884 C315.109077,1151.55758 294.516857,1150.51497 274.182944,1148.30829 L274.141615,1148.30829 C264.25363,1147.23531 254.427638,1145.88903 244.694637,1144.13786 C238.577932,1143.04464 232.502556,1141.78946 226.468508,1140.35208 C226.458176,1140.35208 226.447844,1140.34196 226.437511,1140.34196 C226.272195,1140.30147 226.096546,1140.26098 225.93123,1140.22049 C215.185666,1137.6494 204.574422,1134.47096 194.128494,1130.52322 C180.458898,1125.35068 166.799633,1118.39658 158.19285,1106.78619 C157.882881,1106.37117 157.583246,1105.95615 157.293942,1105.53101 C146.207413,1089.46675 146.46572,1068.06799 150.712284,1049.01763 C167.491895,973.636085 234.279707,927.892941 307.948812,913.033252 C318.973347,910.806323 329.181632,908.326334 338.780314,905.380714 L338.790646,905.380714 C339.079949,905.299735 339.369253,905.218756 339.658557,905.117532 C344.018776,903.771252 348.26534,902.323748 352.398249,900.754776 C373.083459,892.960525 391.185601,882.301633 409.267079,866.500561 C412.687061,863.514451 416.107043,860.336016 419.54769,856.965256 C420.415601,856.114974 421.293844,855.244447 422.192752,854.353676 C424.765488,851.792707 427.441546,849.079903 430.210595,846.316487 C430.241592,846.265875 430.293254,846.225385 430.355247,846.174773 C434.198853,842.308015 438.228439,838.309665 442.433674,834.382173 C457.591118,820.210807 474.908008,806.950458 493.940054,803.853002 C518.644518,795.805691 548.47379,798.488128 577.497144,806.616418 C588.635334,809.734119 599.649537,813.651489 610.20912,818.085102 C630.853001,826.729635 649.771392,837.297425 664.44322,847.571665 C684.21919,861.408991 702.620968,877.382145 719.503901,894.79268 C724.58738,900.025963 729.526206,905.390837 734.320381,910.87718 C738.980236,916.18132 743.495439,921.586683 747.876323,927.083149 C748.310278,927.619636 748.733901,928.166246 749.157524,928.702733 C756.710416,938.258283 763.860349,948.087137 770.59699,958.098195 C785.072505,979.618426 796.902957,1002.34322 807.452207,1025.89806 C814.064862,1040.67677 817.402186,1058.41122 817.9188,1076.18616 C817.939464,1076.63155 817.949797,1077.07693 817.960129,1077.52232 C818.166774,1087.06774 817.567503,1096.60305 816.224307,1105.67272" id="blob_2" transform="translate(483.000000, 1001.500000) rotate(150.000000) translate(-483.000000, -1001.500000) "></path>
        </g>
    </g>
</svg>